# xmcd
#
# Track frame offsets: 
#        150
#        20648
#        40037
#        57860
#        84824
#        108956
#        111986
#        127585
#        150622
#        176122
#        194495
#        204637
#
# Disc length: 2912 seconds
#
# Revision: 42
# Processed by: cddbd v1.5.2PL0 Copyright (c) Steve Scherf et al.
# Submitted via: ExactAudioCopy v1.3
#
DISCID=960b5e0c
DTITLE=Megadeth - The System Has Failed
DYEAR=2004
DGENRE=Thrash Metal
TTITLE0=Blackmail the Universe
TTITLE1=Die Dead Enough
TTITLE2=Kick the Chair
TTITLE3=The Scorpion
TTITLE4=Tears in a Vial
TTITLE5=I Know Jack
TTITLE6=Back in the Day
TTITLE7=Something That I'm Not
TTITLE8=Truth Be Told
TTITLE9=Of Mice and Men
TTITLE10=Shadow of Deth
TTITLE11=My Kingdom
EXTD=YEAR: 2004
EXTT0=
EXTT1=
EXTT2=
EXTT3=
EXTT4=
EXTT5=
EXTT6=
EXTT7=
EXTT8=
EXTT9=
EXTT10=
EXTT11=
PLAYORDER=
